<?xml version="1.0" encoding="utf-8"?>
<!-- Generator: Adobe Illustrator 23.0.6, SVG Export Plug-In . SVG Version: 6.00 Build 0)  -->
<svg version="1.1" id="Layer_1" xmlns="http://www.w3.org/2000/svg" xmlns:xlink="http://www.w3.org/1999/xlink" x="0px" y="0px"
	 viewBox="0 0 550 400" style="enable-background:new 0 0 550 400;" xml:space="preserve">
<style type="text/css">
	.st0{fill:#E84D3D;}
	.st1{fill:#AB3226;}
	.st2{fill:#932722;}
	.st3{fill:#DB433B;}
	.st4{fill:#472932;}
	.st5{fill:#E5DCDF;}
</style>
<g>
	<g>
		<g>
			<path class="st0" d="M129.6,111.4H26.7c-4.7,0-8.6,3.8-8.6,8.6v177.6c0,4.7,3.8,8.6,8.6,8.6h102.9V111.4z"/>
		</g>
		<g>
			<path class="st1" d="M18.1,229.8v67.9c0,4.7,3.8,8.6,8.6,8.6h102.9v-76.4H18.1z"/>
		</g>
		<g>
			<rect x="36.7" y="111.4" class="st1" width="74.5" height="118.4"/>
		</g>
		<g>
			<g>
				<path class="st0" d="M98.8,118v-2.9c0-0.8,0.6-1.4,1.4-1.4c0.8,0,1.4,0.6,1.4,1.4v2.9c0,0.8-0.6,1.4-1.4,1.4
					C99.4,119.4,98.8,118.8,98.8,118z"/>
			</g>
			<g>
				<path class="st0" d="M98.8,213.6v-5.5c0-0.8,0.6-1.4,1.4-1.4c0.8,0,1.4,0.6,1.4,1.4v5.5c0,0.8-0.6,1.4-1.4,1.4
					C99.4,215.1,98.8,214.4,98.8,213.6z M98.8,200v-5.5c0-0.8,0.6-1.4,1.4-1.4c0.8,0,1.4,0.6,1.4,1.4v5.5c0,0.8-0.6,1.4-1.4,1.4
					C99.4,201.4,98.8,200.8,98.8,200z M98.8,186.3v-5.5c0-0.8,0.6-1.4,1.4-1.4c0.8,0,1.4,0.6,1.4,1.4v5.5c0,0.8-0.6,1.4-1.4,1.4
					C99.4,187.7,98.8,187.1,98.8,186.3z M98.8,172.6v-5.5c0-0.8,0.6-1.4,1.4-1.4c0.8,0,1.4,0.6,1.4,1.4v5.5c0,0.8-0.6,1.4-1.4,1.4
					C99.4,174.1,98.8,173.4,98.8,172.6z M98.8,159v-5.5c0-0.8,0.6-1.4,1.4-1.4c0.8,0,1.4,0.6,1.4,1.4v5.5c0,0.8-0.6,1.4-1.4,1.4
					C99.4,160.4,98.8,159.8,98.8,159z M98.8,145.3v-5.5c0-0.8,0.6-1.4,1.4-1.4c0.8,0,1.4,0.6,1.4,1.4v5.5c0,0.8-0.6,1.4-1.4,1.4
					C99.4,146.8,98.8,146.1,98.8,145.3z M98.8,131.7v-5.5c0-0.8,0.6-1.4,1.4-1.4c0.8,0,1.4,0.6,1.4,1.4v5.5c0,0.8-0.6,1.4-1.4,1.4
					C99.4,133.1,98.8,132.5,98.8,131.7z"/>
			</g>
			<g>
				<path class="st0" d="M98.8,224.7v-2.9c0-0.8,0.6-1.4,1.4-1.4c0.8,0,1.4,0.6,1.4,1.4v2.9c0,0.8-0.6,1.4-1.4,1.4
					C99.4,226.1,98.8,225.5,98.8,224.7z"/>
			</g>
		</g>
		<g>
			<g>
				<path class="st0" d="M19.1,237.2c0-0.8,0.6-1.4,1.4-1.4h2.9c0.8,0,1.4,0.6,1.4,1.4c0,0.8-0.6,1.4-1.4,1.4h-2.9
					C19.8,238.6,19.1,238,19.1,237.2z"/>
			</g>
			<g>
				<path class="st0" d="M30.2,237.2c0-0.8,0.6-1.4,1.4-1.4h5.5c0.8,0,1.4,0.6,1.4,1.4c0,0.8-0.6,1.4-1.4,1.4h-5.5
					C30.8,238.6,30.2,238,30.2,237.2z M43.8,237.2c0-0.8,0.6-1.4,1.4-1.4h5.5c0.8,0,1.4,0.6,1.4,1.4c0,0.8-0.6,1.4-1.4,1.4h-5.5
					C44.5,238.6,43.8,238,43.8,237.2z M57.5,237.2c0-0.8,0.6-1.4,1.4-1.4h5.5c0.8,0,1.4,0.6,1.4,1.4c0,0.8-0.6,1.4-1.4,1.4h-5.5
					C58.1,238.6,57.5,238,57.5,237.2z M71.2,237.2c0-0.8,0.6-1.4,1.4-1.4h5.5c0.8,0,1.4,0.6,1.4,1.4c0,0.8-0.6,1.4-1.4,1.4h-5.5
					C71.8,238.6,71.2,238,71.2,237.2z M84.8,237.2c0-0.8,0.6-1.4,1.4-1.4h5.5c0.8,0,1.4,0.6,1.4,1.4c0,0.8-0.6,1.4-1.4,1.4h-5.5
					C85.5,238.6,84.8,238,84.8,237.2z M98.5,237.2c0-0.8,0.6-1.4,1.4-1.4h5.5c0.8,0,1.4,0.6,1.4,1.4c0,0.8-0.6,1.4-1.4,1.4h-5.5
					C99.1,238.6,98.5,238,98.5,237.2z M112.1,237.2c0-0.8,0.6-1.4,1.4-1.4h5.5c0.8,0,1.4,0.6,1.4,1.4c0,0.8-0.6,1.4-1.4,1.4h-5.5
					C112.8,238.6,112.1,238,112.1,237.2z"/>
			</g>
			<g>
				<path class="st0" d="M125.8,237.2c0-0.8,0.6-1.4,1.4-1.4h2.9c0.8,0,1.4,0.6,1.4,1.4c0,0.8-0.6,1.4-1.4,1.4h-2.9
					C126.4,238.6,125.8,238,125.8,237.2z"/>
			</g>
		</g>
		<g>
			<g>
				<path class="st0" d="M43.6,118.7v-2.9c0-0.8,0.6-1.4,1.4-1.4c0.8,0,1.4,0.6,1.4,1.4v2.9c0,0.8-0.6,1.4-1.4,1.4
					C44.3,120.2,43.6,119.5,43.6,118.7z"/>
			</g>
			<g>
				<path class="st0" d="M43.6,214.4v-5.5c0-0.8,0.6-1.4,1.4-1.4c0.8,0,1.4,0.6,1.4,1.4v5.5c0,0.8-0.6,1.4-1.4,1.4
					C44.3,215.8,43.6,215.2,43.6,214.4z M43.6,200.7v-5.5c0-0.8,0.6-1.4,1.4-1.4c0.8,0,1.4,0.6,1.4,1.4v5.5c0,0.8-0.6,1.4-1.4,1.4
					C44.3,202.1,43.6,201.5,43.6,200.7z M43.6,187v-5.5c0-0.8,0.6-1.4,1.4-1.4c0.8,0,1.4,0.6,1.4,1.4v5.5c0,0.8-0.6,1.4-1.4,1.4
					C44.3,188.5,43.6,187.8,43.6,187z M43.6,173.4v-5.5c0-0.8,0.6-1.4,1.4-1.4c0.8,0,1.4,0.6,1.4,1.4v5.5c0,0.8-0.6,1.4-1.4,1.4
					C44.3,174.8,43.6,174.2,43.6,173.4z M43.6,159.7v-5.5c0-0.8,0.6-1.4,1.4-1.4c0.8,0,1.4,0.6,1.4,1.4v5.5c0,0.8-0.6,1.4-1.4,1.4
					C44.3,161.1,43.6,160.5,43.6,159.7z M43.6,146.1v-5.5c0-0.8,0.6-1.4,1.4-1.4c0.8,0,1.4,0.6,1.4,1.4v5.5c0,0.8-0.6,1.4-1.4,1.4
					C44.3,147.5,43.6,146.8,43.6,146.1z M43.6,132.4v-5.5c0-0.8,0.6-1.4,1.4-1.4c0.8,0,1.4,0.6,1.4,1.4v5.5c0,0.8-0.6,1.4-1.4,1.4
					C44.3,133.8,43.6,133.2,43.6,132.4z"/>
			</g>
			<g>
				<path class="st0" d="M43.6,225.4v-2.9c0-0.8,0.6-1.4,1.4-1.4c0.8,0,1.4,0.6,1.4,1.4v2.9c0,0.8-0.6,1.4-1.4,1.4
					C44.3,226.9,43.6,226.2,43.6,225.4z"/>
			</g>
		</g>
	</g>
	<g>
		<path class="st2" d="M128.3,111.4c0,0,82.2-83.5,189.5-91.5c107.4-8,121.3,37.8,85.5,77.5c59.6-6,105.4,6,115.3,35.8
			c9.9,29.8,25.8,198.8-61.6,236.6c-87.5,37.8-328.7-63.6-328.7-63.6V111.4z"/>
	</g>
	<g>
		<g>
			<path class="st3" d="M329.8,191.9c0.1-0.4,0.1-0.8,0.2-1.2C329.9,191.3,329.8,191.6,329.8,191.9z"/>
		</g>
		<g>
			<path class="st3" d="M457,369.9c87.5-37.8,71.6-206.8,61.6-236.6c-9.9-29.6-55-41.5-114-35.9c-0.3,0.2-0.7,0.3-1,0.5
				c-0.1,0.1-0.3,0.1-0.4,0.2c10.5,7.5,22.5,13.1,35.3,15.4c-23.1-1.9-55.1,12.1-73.4,25.7c-10.3,7.6-18.9,15.5-25.5,28
				c-1.6,3.1-4.9,8.5-6.2,11.3c-0.5,1.1-3.8,15.2-3.7,13.4c-7.8,45.9,4.9,85.6,42,113.4c6.3,4.7,77,44.9,65.9,54.7
				c-20.5,17.9-96.5,11.6-98.2,11.4C385.8,379.8,429.2,381.9,457,369.9z"/>
		</g>
	</g>
	<g>
		<path class="st3" d="M404.7,97.4L404.7,97.4c-0.4,0-0.9,0.1-1.3,0.1C439.1,57.8,425.2,12,317.9,20c-107.4,8-189.5,91.5-189.5,91.5
			C320.5,155.2,404.7,97.4,404.7,97.4z"/>
	</g>
	<g>
		<path class="st4" d="M128.3,237.2h101.4c11.2,0,20.2-9,20.2-20.2c0-11.2-9-20.2-20.2-20.2H128.3V237.2z"/>
	</g>
	<g>
		<g>
			<path class="st5" d="M143.5,184c0-1.3,0.7-2.6,2-3.4c1.8-1,4.2-0.4,5.2,1.5l33.7,59.9l33.7-59.9c1-1.8,3.4-2.5,5.2-1.5
				c1.8,1,2.5,3.4,1.5,5.2l-37,65.9c-0.7,1.2-2,2-3.3,2c-1.4,0-2.7-0.7-3.3-2l-37-65.9C143.7,185.3,143.5,184.7,143.5,184z"/>
		</g>
		<g>
			<path class="st5" d="M143.5,249.9c0-0.6,0.2-1.3,0.5-1.9l37-65.9c0.7-1.2,2-2,3.3-2c1.4,0,2.7,0.7,3.3,2l37,65.9
				c1,1.9,0.4,4.2-1.5,5.2c-1.9,1-4.2,0.4-5.2-1.5l-33.7-59.9l-33.7,59.9c-1,1.8-3.4,2.5-5.2,1.5
				C144.2,252.6,143.5,251.3,143.5,249.9z"/>
		</g>
	</g>
</g>
</svg>
